<svg width="59" height="58" xmlns="http://www.w3.org/2000/svg" xmlns:xlink="http://www.w3.org/1999/xlink" xml:space="preserve" overflow="hidden"><g transform="translate(-168 -24)"><path d="M48.3333 9.7875C48.3333 12.1232 46.4399 14.0167 44.1042 14.0167 41.7685 14.0167 39.875 12.1232 39.875 9.7875 39.875 7.4518 41.7685 5.55833 44.1042 5.55833 46.4399 5.55833 48.3333 7.4518 48.3333 9.7875Z" fill="#D0CECE" transform="matrix(1.01724 0 0 1 168 24)"/><path d="M18.125 9.7875C18.125 12.1232 16.2315 14.0167 13.8958 14.0167 11.5601 14.0167 9.66667 12.1232 9.66667 9.7875 9.66667 7.4518 11.5601 5.55833 13.8958 5.55833 16.2315 5.55833 18.125 7.4518 18.125 9.7875Z" fill="#D0CECE" transform="matrix(1.01724 0 0 1 168 24)"/><path d="M33.2292 9.7875C33.2292 12.1232 31.3357 14.0167 29 14.0167 26.6643 14.0167 24.7708 12.1232 24.7708 9.7875 24.7708 7.4518 26.6643 5.55833 29 5.55833 31.3357 5.55833 33.2292 7.4518 33.2292 9.7875Z" fill="#D0CECE" transform="matrix(1.01724 0 0 1 168 24)"/><path d="M39.7542 29.4833 37.0354 19.4542C36.9146 19.0917 36.7333 18.7292 36.4917 18.4875 35.3438 17.2792 33.8937 16.3729 32.3229 15.8292 31.2958 15.4667 30.2083 15.2854 29.0604 15.2854 27.9125 15.2854 26.825 15.4667 25.7979 15.8292 24.1667 16.3729 22.7771 17.2792 21.6292 18.4875 21.3875 18.7896 21.2062 19.0917 21.0854 19.4542L18.3667 29.4833C18.125 30.45 18.6083 31.5375 19.6354 31.7792 19.8167 31.8396 19.9375 31.8396 20.1187 31.8396 20.9042 31.8396 21.6292 31.2958 21.8708 30.5104L24.2875 21.6896 24.2875 52.4417 27.9125 52.4417 27.9125 35.1625 30.3292 35.1625 30.3292 52.3812 33.9542 52.3812 33.9542 21.6896 36.3708 30.5104C36.6125 31.2958 37.3375 31.8396 38.1229 31.8396 38.3042 31.8396 38.425 31.8396 38.6063 31.7792 39.4521 31.5375 39.9958 30.45 39.7542 29.4833Z" fill="#D0CECE" transform="matrix(1.01724 0 0 1 168 24)"/><path d="M17.0979 29.1812 19.8167 19.1521C19.9375 18.6083 20.2396 18.125 20.5417 17.7021 19.575 16.8563 18.3667 16.1917 17.0979 15.7688 16.0708 15.4063 14.9833 15.225 13.8354 15.225 12.6875 15.225 11.6 15.4063 10.5729 15.7688 8.94167 16.3125 7.55208 17.2188 6.40417 18.4271 6.1625 18.7292 5.98125 19.0312 5.86042 19.3937L3.14167 29.4833C2.9 30.45 3.38333 31.5375 4.41042 31.7792 4.59167 31.8396 4.7125 31.8396 4.89375 31.8396 5.67917 31.8396 6.40417 31.2958 6.64583 30.5104L9.0625 21.6896 9.0625 52.4417 12.6875 52.4417 12.6875 35.1625 15.1042 35.1625 15.1042 52.3812 18.7292 52.3812 18.7292 32.8063C17.4604 32.2021 16.7354 30.6917 17.0979 29.1812Z" fill="#D0CECE" transform="matrix(1.01724 0 0 1 168 24)"/><path d="M54.8583 29.4833 52.0792 19.4542C51.9583 19.0917 51.7771 18.7292 51.5354 18.4875 50.3875 17.2792 48.9375 16.3729 47.3667 15.8292 46.3396 15.4667 45.2521 15.2854 44.1042 15.2854 42.9562 15.2854 41.8688 15.4667 40.8417 15.8292 39.5729 16.2521 38.425 16.9167 37.3979 17.7625 37.7604 18.1854 38.0021 18.6688 38.1229 19.1521L40.8417 29.1812C41.2646 30.6917 40.4792 32.2021 39.2104 32.8063L39.2104 52.4417 42.8354 52.4417 42.8354 35.1625 45.2521 35.1625 45.2521 52.3812 48.8771 52.3812 48.8771 21.6896 51.2938 30.5104C51.5354 31.2958 52.2604 31.8396 53.0458 31.8396 53.2271 31.8396 53.3479 31.8396 53.5292 31.7792 54.5563 31.5375 55.1 30.45 54.8583 29.4833Z" fill="#D0CECE" transform="matrix(1.01724 0 0 1 168 24)"/></g></svg>